<svg width="800" height="459" viewBox="0 0 800 459" fill="none" xmlns="http://www.w3.org/2000/svg">
<rect width="800" height="459" fill="white"/>
<path d="M461.042 150.375H337.958C328.247 150.375 320.375 158.247 320.375 167.958V291.042C320.375 300.753 328.247 308.625 337.958 308.625H461.042C470.753 308.625 478.625 300.753 478.625 291.042V167.958C478.625 158.247 470.753 150.375 461.042 150.375Z" stroke="#E6E9F2" stroke-width="5" stroke-linecap="round" stroke-linejoin="round"/>
<path d="M368.729 211.917C376.012 211.917 381.916 206.012 381.916 198.729C381.916 191.446 376.012 185.542 368.729 185.542C361.446 185.542 355.541 191.446 355.541 198.729C355.541 206.012 361.446 211.917 368.729 211.917Z" stroke="#E6E9F2" stroke-width="5" stroke-linecap="round" stroke-linejoin="round"/>
<path d="M478.625 255.875L434.667 211.917L337.959 308.625" stroke="#E6E9F2" stroke-width="5" stroke-linecap="round" stroke-linejoin="round"/>
</svg>
