<svg width="25" height="26" viewBox="0 0 25 26" fill="none" xmlns="http://www.w3.org/2000/svg">
<path d="M23.9583 4.66667V10.9167H17.7083" stroke="#71798F" stroke-width="2" stroke-linecap="round" stroke-linejoin="round"/>
<path d="M1.04169 21.3333V15.0833H7.29169" stroke="#71798F" stroke-width="2" stroke-linecap="round" stroke-linejoin="round"/>
<path d="M3.65627 9.875C4.18457 8.38207 5.08245 7.04729 6.26613 5.99523C7.44981 4.94316 8.88071 4.20809 10.4253 3.8586C11.9699 3.50912 13.5779 3.55661 15.0992 3.99664C16.6205 4.43667 18.0055 5.25491 19.125 6.375L23.9584 10.9167M1.04169 15.0833L5.87502 19.625C6.99455 20.7451 8.37958 21.5633 9.90086 22.0034C11.4222 22.4434 13.0301 22.4909 14.5747 22.1414C16.1193 21.7919 17.5502 21.0568 18.7339 20.0048C19.9176 18.9527 20.8155 17.6179 21.3438 16.125" stroke="#71798F" stroke-width="2" stroke-linecap="round" stroke-linejoin="round"/>
</svg>
